<mxfile host="app.diagrams.net" modified="2023-09-05T11:41:29.573Z" agent="Mozilla/5.0 (Windows NT 10.0; Win64; x64) AppleWebKit/537.36 (KHTML, like Gecko) Chrome/116.0.0.0 Safari/537.36" version="21.7.2" etag="743zfm576tQCRK-hYOQV" type="github">
  <diagram name="PÃ¡gina-1" id="BH1qhdnxoWcXbNzppzCz">
    <mxGraphModel>
      <root>
        <mxCell id="0" />
        <mxCell id="1" parent="0" />
      </root>
    </mxGraphModel>
  </diagram>
</mxfile>
